<?xml version="1.0" standalone="no"?>
<!DOCTYPE svg PUBLIC "-//W3C//DTD SVG 20010904//EN"
 "http://www.w3.org/TR/2001/REC-SVG-20010904/DTD/svg10.dtd">
<svg version="1.0" xmlns="http://www.w3.org/2000/svg"
 width="307px" height="269px" viewBox="0 0 919.000000 858.000000"
 preserveAspectRatio="xMidYMid meet">

<g transform="translate(0.000000,858.000000) scale(0.100000,-0.100000)"
fill="#000000" stroke="none">
<path d="M1280 4420 l0 -2800 240 0 240 0 0 -130 0 -130 3070 0 3070 0 0 2760
0 2760 -120 0 -120 0 0 170 0 170 -3190 0 -3190 0 0 -2800z m6320 0 l0 -2740
-3130 0 -3130 0 0 2740 0 2740 3130 0 3130 0 0 -2740z"/>
<path d="M1830 7009 c-207 -40 -358 -255 -321 -456 22 -119 99 -230 201 -291
168 -98 390 -52 512 107 89 116 110 255 58 394 -42 113 -172 219 -298 246 -60
12 -88 13 -152 0z m247 -174 c69 -21 133 -72 168 -136 103 -188 -69 -443 -309
-457 -99 -6 -169 12 -218 56 -81 73 -115 189 -85 293 55 189 257 300 444 244z"/>
<path d="M2690 7009 c-207 -40 -358 -255 -321 -456 22 -119 99 -230 201 -291
168 -98 390 -52 512 107 89 116 110 255 58 394 -42 113 -172 219 -298 246 -60
12 -88 13 -152 0z m247 -174 c69 -21 133 -72 168 -136 103 -188 -69 -443 -309
-457 -99 -6 -169 12 -218 56 -81 73 -115 189 -85 293 55 189 257 300 444 244z"/>
<path d="M3550 7009 c-207 -40 -358 -255 -321 -456 22 -119 99 -230 201 -291
168 -98 390 -52 512 107 89 116 110 255 58 394 -42 113 -172 219 -298 246 -60
12 -88 13 -152 0z m247 -174 c69 -21 133 -72 168 -136 103 -188 -69 -443 -309
-457 -99 -6 -169 12 -218 56 -81 73 -115 189 -85 293 55 189 257 300 444 244z"/>
<path d="M4410 7009 c-207 -40 -358 -255 -321 -456 22 -119 99 -230 201 -291
168 -98 390 -52 512 107 89 116 110 255 58 394 -42 113 -172 219 -298 246 -60
12 -88 13 -152 0z m247 -174 c69 -21 133 -72 168 -136 103 -188 -69 -443 -309
-457 -99 -6 -169 12 -218 56 -81 73 -115 189 -85 293 55 189 257 300 444 244z"/>
<path d="M5270 7009 c-207 -40 -358 -255 -321 -456 22 -119 99 -230 201 -291
168 -98 390 -52 512 107 89 116 110 255 58 394 -42 113 -172 219 -298 246 -60
12 -88 13 -152 0z m247 -174 c69 -21 133 -72 168 -136 103 -188 -69 -443 -309
-457 -99 -6 -169 12 -218 56 -81 73 -115 189 -85 293 55 189 257 300 444 244z"/>
<path d="M6130 7009 c-207 -40 -358 -255 -321 -456 22 -119 99 -230 201 -291
168 -98 390 -52 512 107 89 116 110 255 58 394 -42 113 -172 219 -298 246 -60
12 -88 13 -152 0z m247 -174 c69 -21 133 -72 168 -136 103 -188 -69 -443 -309
-457 -99 -6 -169 12 -218 56 -81 73 -115 189 -85 293 55 189 257 300 444 244z"/>
<path d="M6990 7009 c-207 -40 -358 -255 -321 -456 22 -119 99 -230 201 -291
168 -98 390 -52 512 107 89 116 110 255 58 394 -42 113 -172 219 -298 246 -60
12 -88 13 -152 0z m247 -174 c69 -21 133 -72 168 -136 103 -188 -69 -443 -309
-457 -99 -6 -169 12 -218 56 -81 73 -115 189 -85 293 55 189 257 300 444 244z"/>
<path d="M1830 6149 c-207 -40 -358 -255 -321 -456 22 -119 99 -230 201 -291
168 -98 390 -52 512 107 89 116 110 255 58 394 -42 113 -172 219 -298 246 -60
12 -88 13 -152 0z m247 -174 c69 -21 133 -72 168 -136 103 -188 -69 -443 -309
-457 -99 -6 -169 12 -218 56 -81 73 -115 189 -85 293 55 189 257 300 444 244z"/>
<path d="M2690 6149 c-207 -40 -358 -255 -321 -456 22 -119 99 -230 201 -291
168 -98 390 -52 512 107 89 116 110 255 58 394 -42 113 -172 219 -298 246 -60
12 -88 13 -152 0z m247 -174 c69 -21 133 -72 168 -136 103 -188 -69 -443 -309
-457 -99 -6 -169 12 -218 56 -81 73 -115 189 -85 293 55 189 257 300 444 244z"/>
<path d="M3550 6149 c-207 -40 -358 -255 -321 -456 22 -119 99 -230 201 -291
168 -98 390 -52 512 107 89 116 110 255 58 394 -42 113 -172 219 -298 246 -60
12 -88 13 -152 0z m247 -174 c69 -21 133 -72 168 -136 103 -188 -69 -443 -309
-457 -99 -6 -169 12 -218 56 -81 73 -115 189 -85 293 55 189 257 300 444 244z"/>
<path d="M4410 6149 c-207 -40 -358 -255 -321 -456 22 -119 99 -230 201 -291
168 -98 390 -52 512 107 89 116 110 255 58 394 -42 113 -172 219 -298 246 -60
12 -88 13 -152 0z m247 -174 c69 -21 133 -72 168 -136 103 -188 -69 -443 -309
-457 -99 -6 -169 12 -218 56 -81 73 -115 189 -85 293 55 189 257 300 444 244z"/>
<path d="M5270 6149 c-207 -40 -358 -255 -321 -456 22 -119 99 -230 201 -291
168 -98 390 -52 512 107 89 116 110 255 58 394 -42 113 -172 219 -298 246 -60
12 -88 13 -152 0z m247 -174 c69 -21 133 -72 168 -136 103 -188 -69 -443 -309
-457 -99 -6 -169 12 -218 56 -81 73 -115 189 -85 293 55 189 257 300 444 244z"/>
<path d="M6130 6149 c-207 -40 -358 -255 -321 -456 22 -119 99 -230 201 -291
168 -98 390 -52 512 107 89 116 110 255 58 394 -42 113 -172 219 -298 246 -60
12 -88 13 -152 0z m247 -174 c69 -21 133 -72 168 -136 103 -188 -69 -443 -309
-457 -99 -6 -169 12 -218 56 -81 73 -115 189 -85 293 55 189 257 300 444 244z"/>
<path d="M6990 6149 c-207 -40 -358 -255 -321 -456 22 -119 99 -230 201 -291
168 -98 390 -52 512 107 89 116 110 255 58 394 -42 113 -172 219 -298 246 -60
12 -88 13 -152 0z m247 -174 c69 -21 133 -72 168 -136 103 -188 -69 -443 -309
-457 -99 -6 -169 12 -218 56 -81 73 -115 189 -85 293 55 189 257 300 444 244z"/>
<path d="M1830 5269 c-207 -40 -358 -255 -321 -456 22 -119 99 -230 201 -291
168 -98 390 -52 512 107 89 116 110 255 58 394 -42 113 -172 219 -298 246 -60
12 -88 13 -152 0z m247 -174 c69 -21 133 -72 168 -136 103 -188 -69 -443 -309
-457 -99 -6 -169 12 -218 56 -81 73 -115 189 -85 293 55 189 257 300 444 244z"/>
<path d="M2690 5269 c-207 -40 -358 -255 -321 -456 22 -119 99 -230 201 -291
168 -98 390 -52 512 107 89 116 110 255 58 394 -42 113 -172 219 -298 246 -60
12 -88 13 -152 0z m247 -174 c69 -21 133 -72 168 -136 103 -188 -69 -443 -309
-457 -99 -6 -169 12 -218 56 -81 73 -115 189 -85 293 55 189 257 300 444 244z"/>
<path d="M3550 5269 c-207 -40 -358 -255 -321 -456 22 -119 99 -230 201 -291
168 -98 390 -52 512 107 89 116 110 255 58 394 -42 113 -172 219 -298 246 -60
12 -88 13 -152 0z m247 -174 c69 -21 133 -72 168 -136 103 -188 -69 -443 -309
-457 -99 -6 -169 12 -218 56 -81 73 -115 189 -85 293 55 189 257 300 444 244z"/>
<path d="M4410 5269 c-207 -40 -358 -255 -321 -456 22 -119 99 -230 201 -291
168 -98 390 -52 512 107 89 116 110 255 58 394 -42 113 -172 219 -298 246 -60
12 -88 13 -152 0z m247 -174 c69 -21 133 -72 168 -136 103 -188 -69 -443 -309
-457 -99 -6 -169 12 -218 56 -81 73 -115 189 -85 293 55 189 257 300 444 244z"/>
<path d="M5270 5269 c-207 -40 -358 -255 -321 -456 22 -119 99 -230 201 -291
168 -98 390 -52 512 107 89 116 110 255 58 394 -42 113 -172 219 -298 246 -60
12 -88 13 -152 0z m247 -174 c69 -21 133 -72 168 -136 103 -188 -69 -443 -309
-457 -99 -6 -169 12 -218 56 -81 73 -115 189 -85 293 55 189 257 300 444 244z"/>
<path d="M6130 5269 c-207 -40 -358 -255 -321 -456 22 -119 99 -230 201 -291
168 -98 390 -52 512 107 89 116 110 255 58 394 -42 113 -172 219 -298 246 -60
12 -88 13 -152 0z m247 -174 c69 -21 133 -72 168 -136 103 -188 -69 -443 -309
-457 -99 -6 -169 12 -218 56 -81 73 -115 189 -85 293 55 189 257 300 444 244z"/>
<path d="M6990 5269 c-207 -40 -358 -255 -321 -456 22 -119 99 -230 201 -291
168 -98 390 -52 512 107 89 116 110 255 58 394 -42 113 -172 219 -298 246 -60
12 -88 13 -152 0z m247 -174 c69 -21 133 -72 168 -136 103 -188 -69 -443 -309
-457 -99 -6 -169 12 -218 56 -81 73 -115 189 -85 293 55 189 257 300 444 244z"/>
<path d="M1830 4409 c-207 -40 -358 -255 -321 -456 22 -119 99 -230 201 -291
168 -98 390 -52 512 107 89 116 110 255 58 394 -42 113 -172 219 -298 246 -60
12 -88 13 -152 0z m247 -174 c69 -21 133 -72 168 -136 103 -188 -69 -443 -309
-457 -99 -6 -169 12 -218 56 -81 73 -115 189 -85 293 55 189 257 300 444 244z"/>
<path d="M2690 4409 c-207 -40 -358 -255 -321 -456 22 -119 99 -230 201 -291
168 -98 390 -52 512 107 89 116 110 255 58 394 -42 113 -172 219 -298 246 -60
12 -88 13 -152 0z m247 -174 c69 -21 133 -72 168 -136 103 -188 -69 -443 -309
-457 -99 -6 -169 12 -218 56 -81 73 -115 189 -85 293 55 189 257 300 444 244z"/>
<path d="M3550 4409 c-207 -40 -358 -255 -321 -456 22 -119 99 -230 201 -291
168 -98 390 -52 512 107 89 116 110 255 58 394 -42 113 -172 219 -298 246 -60
12 -88 13 -152 0z m247 -174 c69 -21 133 -72 168 -136 103 -188 -69 -443 -309
-457 -99 -6 -169 12 -218 56 -81 73 -115 189 -85 293 55 189 257 300 444 244z"/>
<path d="M4410 4409 c-207 -40 -358 -255 -321 -456 22 -119 99 -230 201 -291
168 -98 390 -52 512 107 89 116 110 255 58 394 -42 113 -172 219 -298 246 -60
12 -88 13 -152 0z m278 -189 c106 -46 183 -172 168 -274 -25 -158 -176 -293
-342 -304 -137 -9 -228 38 -280 145 -33 67 -37 152 -11 228 19 55 71 126 90
122 6 -1 11 5 12 13 0 19 96 77 149 89 62 15 154 7 214 -19z"/>
<path d="M5270 4409 c-207 -40 -358 -255 -321 -456 22 -119 99 -230 201 -291
168 -98 390 -52 512 107 89 116 110 255 58 394 -42 113 -172 219 -298 246 -60
12 -88 13 -152 0z m247 -174 c69 -21 133 -72 168 -136 103 -188 -69 -443 -309
-457 -99 -6 -169 12 -218 56 -81 73 -115 189 -85 293 55 189 257 300 444 244z"/>
<path d="M6130 4409 c-207 -40 -358 -255 -321 -456 22 -119 99 -230 201 -291
168 -98 390 -52 512 107 89 116 110 255 58 394 -42 113 -172 219 -298 246 -60
12 -88 13 -152 0z m247 -174 c69 -21 133 -72 168 -136 103 -188 -69 -443 -309
-457 -99 -6 -169 12 -218 56 -81 73 -115 189 -85 293 55 189 257 300 444 244z"/>
<path d="M6990 4409 c-207 -40 -358 -255 -321 -456 22 -119 99 -230 201 -291
168 -98 390 -52 512 107 89 116 110 255 58 394 -42 113 -172 219 -298 246 -60
12 -88 13 -152 0z m247 -174 c69 -21 133 -72 168 -136 103 -188 -69 -443 -309
-457 -99 -6 -169 12 -218 56 -81 73 -115 189 -85 293 55 189 257 300 444 244z"/>
<path d="M1830 3549 c-207 -40 -358 -255 -321 -456 22 -119 99 -230 201 -291
168 -98 390 -52 512 107 89 116 110 255 58 394 -42 113 -172 219 -298 246 -60
12 -88 13 -152 0z m247 -174 c69 -21 133 -72 168 -136 103 -188 -69 -443 -309
-457 -99 -6 -169 12 -218 56 -81 73 -115 189 -85 293 55 189 257 300 444 244z"/>
<path d="M2690 3549 c-207 -40 -358 -255 -321 -456 22 -119 99 -230 201 -291
168 -98 390 -52 512 107 89 116 110 255 58 394 -42 113 -172 219 -298 246 -60
12 -88 13 -152 0z m247 -174 c69 -21 133 -72 168 -136 103 -188 -69 -443 -309
-457 -99 -6 -169 12 -218 56 -81 73 -115 189 -85 293 55 189 257 300 444 244z"/>
<path d="M3550 3549 c-207 -40 -358 -255 -321 -456 22 -119 99 -230 201 -291
168 -98 390 -52 512 107 89 116 110 255 58 394 -42 113 -172 219 -298 246 -60
12 -88 13 -152 0z m299 -194 c176 -96 201 -297 54 -455 -89 -97 -215 -141
-337 -119 -75 13 -90 21 -144 72 -133 129 -98 361 72 475 71 47 128 62 221 59
66 -3 90 -8 134 -32z"/>
<path d="M4410 3549 c-207 -40 -358 -255 -321 -456 22 -119 99 -230 201 -291
168 -98 390 -52 512 107 89 116 110 255 58 394 -42 113 -172 219 -298 246 -60
12 -88 13 -152 0z m278 -189 c106 -46 183 -172 168 -274 -17 -107 -105 -220
-211 -271 -114 -54 -272 -42 -350 26 -112 99 -119 294 -14 413 22 25 43 45 47
44 14 -3 42 14 37 23 -7 10 61 46 112 59 58 14 152 5 211 -20z"/>
<path d="M5270 3549 c-207 -40 -358 -255 -321 -456 22 -119 99 -230 201 -291
168 -98 390 -52 512 107 89 116 110 255 58 394 -42 113 -172 219 -298 246 -60
12 -88 13 -152 0z m247 -174 c69 -21 133 -72 168 -136 103 -188 -69 -443 -309
-457 -99 -6 -169 12 -218 56 -81 73 -115 189 -85 293 55 189 257 300 444 244z"/>
<path d="M6130 3549 c-207 -40 -358 -255 -321 -456 22 -119 99 -230 201 -291
168 -98 390 -52 512 107 89 116 110 255 58 394 -42 113 -172 219 -298 246 -60
12 -88 13 -152 0z m247 -174 c69 -21 133 -72 168 -136 103 -188 -69 -443 -309
-457 -99 -6 -169 12 -218 56 -81 73 -115 189 -85 293 55 189 257 300 444 244z"/>
<path d="M6990 3549 c-207 -40 -358 -255 -321 -456 22 -119 99 -230 201 -291
168 -98 390 -52 512 107 89 116 110 255 58 394 -42 113 -172 219 -298 246 -60
12 -88 13 -152 0z m247 -174 c69 -21 133 -72 168 -136 103 -188 -69 -443 -309
-457 -99 -6 -169 12 -218 56 -81 73 -115 189 -85 293 55 189 257 300 444 244z"/>
<path d="M1830 2689 c-207 -40 -358 -255 -321 -456 22 -119 99 -230 201 -291
168 -98 390 -52 512 107 89 116 110 255 58 394 -42 113 -172 219 -298 246 -60
12 -88 13 -152 0z m299 -194 c176 -96 201 -297 54 -455 -89 -97 -215 -141
-337 -119 -75 13 -90 21 -144 72 -133 129 -98 361 72 475 71 47 128 62 221 59
66 -3 90 -8 134 -32z"/>
<path d="M2690 2689 c-207 -40 -358 -255 -321 -456 22 -119 99 -230 201 -291
168 -98 390 -52 512 107 89 116 110 255 58 394 -42 113 -172 219 -298 246 -60
12 -88 13 -152 0z m299 -194 c176 -96 201 -297 54 -455 -89 -97 -215 -141
-337 -119 -75 13 -90 21 -144 72 -133 129 -98 361 72 475 71 47 128 62 221 59
66 -3 90 -8 134 -32z"/>
<path d="M3550 2689 c-207 -40 -358 -255 -321 -456 22 -119 99 -230 201 -291
168 -98 390 -52 512 107 89 116 110 255 58 394 -42 113 -172 219 -298 246 -60
12 -88 13 -152 0z m299 -194 c176 -96 201 -297 54 -455 -89 -97 -215 -141
-337 -119 -75 13 -90 21 -144 72 -133 129 -98 361 72 475 71 47 128 62 221 59
66 -3 90 -8 134 -32z"/>
<path d="M4410 2689 c-207 -40 -358 -255 -321 -456 22 -119 99 -230 201 -291
168 -98 390 -52 512 107 89 116 110 255 58 394 -42 113 -172 219 -298 246 -60
12 -88 13 -152 0z m278 -189 c106 -46 183 -172 168 -274 -10 -62 -54 -145
-106 -197 -93 -93 -238 -131 -363 -95 -189 55 -243 307 -100 466 108 121 263
159 401 100z"/>
<path d="M5270 2689 c-207 -40 -358 -255 -321 -456 22 -119 99 -230 201 -291
168 -98 390 -52 512 107 89 116 110 255 58 394 -42 113 -172 219 -298 246 -60
12 -88 13 -152 0z m278 -189 c106 -46 183 -172 168 -274 -10 -62 -54 -145
-106 -197 -93 -93 -238 -131 -363 -95 -189 55 -243 307 -100 466 108 121 263
159 401 100z"/>
<path d="M6130 2689 c-207 -40 -358 -255 -321 -456 22 -119 99 -230 201 -291
168 -98 390 -52 512 107 89 116 110 255 58 394 -42 113 -172 219 -298 246 -60
12 -88 13 -152 0z m247 -174 c69 -21 133 -72 168 -136 103 -188 -69 -443 -309
-457 -99 -6 -169 12 -218 56 -81 73 -115 189 -85 293 55 189 257 300 444 244z"/>
<path d="M6990 2689 c-207 -40 -358 -255 -321 -456 22 -119 99 -230 201 -291
168 -98 390 -52 512 107 89 116 110 255 58 394 -42 113 -172 219 -298 246 -60
12 -88 13 -152 0z m247 -174 c69 -21 133 -72 168 -136 103 -188 -69 -443 -309
-457 -99 -6 -169 12 -218 56 -81 73 -115 189 -85 293 55 189 257 300 444 244z"/>
</g>
</svg>
