<svg width="330" height="287" viewBox="0 0 330 287" fill="none" xmlns="http://www.w3.org/2000/svg">
<path fill-rule="evenodd" clip-rule="evenodd" d="M0 16C0 7.16344 7.16344 0 16 0H314C322.837 0 330 7.16344 330 16V271C330 279.837 322.837 287 314 287H16C7.16345 287 0 279.837 0 271V16ZM56 34C56 45.0457 47.0457 54 36 54C24.9543 54 16 45.0457 16 34C16 22.9543 24.9543 14 36 14C47.0457 14 56 22.9543 56 34ZM79 54C90.0457 54 99 45.0457 99 34C99 22.9543 90.0457 14 79 14C67.9543 14 59 22.9543 59 34C59 45.0457 67.9543 54 79 54ZM142 34C142 45.0457 133.046 54 122 54C110.954 54 102 45.0457 102 34C102 22.9543 110.954 14 122 14C133.046 14 142 22.9543 142 34ZM165 54C176.046 54 185 45.0457 185 34C185 22.9543 176.046 14 165 14C153.954 14 145 22.9543 145 34C145 45.0457 153.954 54 165 54ZM228 34C228 45.0457 219.046 54 208 54C196.954 54 188 45.0457 188 34C188 22.9543 196.954 14 208 14C219.046 14 228 22.9543 228 34ZM251 54C262.046 54 271 45.0457 271 34C271 22.9543 262.046 14 251 14C239.954 14 231 22.9543 231 34C231 45.0457 239.954 54 251 54ZM314 34C314 45.0457 305.046 54 294 54C282.954 54 274 45.0457 274 34C274 22.9543 282.954 14 294 14C305.046 14 314 22.9543 314 34ZM36 97C47.0457 97 56 88.0457 56 77C56 65.9543 47.0457 57 36 57C24.9543 57 16 65.9543 16 77C16 88.0457 24.9543 97 36 97ZM99 77C99 88.0457 90.0457 97 79 97C67.9543 97 59 88.0457 59 77C59 65.9543 67.9543 57 79 57C90.0457 57 99 65.9543 99 77ZM122 97C133.046 97 142 88.0457 142 77C142 65.9543 133.046 57 122 57C110.954 57 102 65.9543 102 77C102 88.0457 110.954 97 122 97ZM185 77C185 88.0457 176.046 97 165 97C153.954 97 145 88.0457 145 77C145 65.9543 153.954 57 165 57C176.046 57 185 65.9543 185 77ZM208 97C219.046 97 228 88.0457 228 77C228 65.9543 219.046 57 208 57C196.954 57 188 65.9543 188 77C188 88.0457 196.954 97 208 97ZM271 77C271 88.0457 262.046 97 251 97C239.954 97 231 88.0457 231 77C231 65.9543 239.954 57 251 57C262.046 57 271 65.9543 271 77ZM294 97C305.046 97 314 88.0457 314 77C314 65.9543 305.046 57 294 57C282.954 57 274 65.9543 274 77C274 88.0457 282.954 97 294 97ZM56 120C56 131.046 47.0457 140 36 140C24.9543 140 16 131.046 16 120C16 108.954 24.9543 100 36 100C47.0457 100 56 108.954 56 120ZM79 140C90.0457 140 99 131.046 99 120C99 108.954 90.0457 100 79 100C67.9543 100 59 108.954 59 120C59 131.046 67.9543 140 79 140ZM142 120C142 131.046 133.046 140 122 140C110.954 140 102 131.046 102 120C102 108.954 110.954 100 122 100C133.046 100 142 108.954 142 120ZM165 140C176.046 140 185 131.046 185 120C185 108.954 176.046 100 165 100C153.954 100 145 108.954 145 120C145 131.046 153.954 140 165 140ZM228 120C228 131.046 219.046 140 208 140C196.954 140 188 131.046 188 120C188 108.954 196.954 100 208 100C219.046 100 228 108.954 228 120ZM251 140C262.046 140 271 131.046 271 120C271 108.954 262.046 100 251 100C239.954 100 231 108.954 231 120C231 131.046 239.954 140 251 140ZM314 120C314 131.046 305.046 140 294 140C282.954 140 274 131.046 274 120C274 108.954 282.954 100 294 100C305.046 100 314 108.954 314 120ZM36 183C47.0457 183 56 174.046 56 163C56 151.954 47.0457 143 36 143C24.9543 143 16 151.954 16 163C16 174.046 24.9543 183 36 183ZM99 163C99 174.046 90.0457 183 79 183C67.9543 183 59 174.046 59 163C59 151.954 67.9543 143 79 143C90.0457 143 99 151.954 99 163ZM122 183C133.046 183 142 174.046 142 163C142 151.954 133.046 143 122 143C110.954 143 102 151.954 102 163C102 174.046 110.954 183 122 183ZM185 163C185 174.046 176.046 183 165 183C153.954 183 145 174.046 145 163C145 151.954 153.954 143 165 143C176.046 143 185 151.954 185 163ZM208 183C219.046 183 228 174.046 228 163C228 151.954 219.046 143 208 143C196.954 143 188 151.954 188 163C188 174.046 196.954 183 208 183ZM271 163C271 174.046 262.046 183 251 183C239.954 183 231 174.046 231 163C231 151.954 239.954 143 251 143C262.046 143 271 151.954 271 163ZM294 183C305.046 183 314 174.046 314 163C314 151.954 305.046 143 294 143C282.954 143 274 151.954 274 163C274 174.046 282.954 183 294 183ZM56 206C56 217.046 47.0457 226 36 226C24.9543 226 16 217.046 16 206C16 194.954 24.9543 186 36 186C47.0457 186 56 194.954 56 206ZM79 226C90.0457 226 99 217.046 99 206C99 194.954 90.0457 186 79 186C67.9543 186 59 194.954 59 206C59 217.046 67.9543 226 79 226ZM142 206C142 217.046 133.046 226 122 226C110.954 226 102 217.046 102 206C102 194.954 110.954 186 122 186C133.046 186 142 194.954 142 206ZM165 226C176.046 226 185 217.046 185 206C185 194.954 176.046 186 165 186C153.954 186 145 194.954 145 206C145 217.046 153.954 226 165 226ZM228 206C228 217.046 219.046 226 208 226C196.954 226 188 217.046 188 206C188 194.954 196.954 186 208 186C219.046 186 228 194.954 228 206ZM251 226C262.046 226 271 217.046 271 206C271 194.954 262.046 186 251 186C239.954 186 231 194.954 231 206C231 217.046 239.954 226 251 226ZM314 206C314 217.046 305.046 226 294 226C282.954 226 274 217.046 274 206C274 194.954 282.954 186 294 186C305.046 186 314 194.954 314 206ZM36 269C47.0457 269 56 260.046 56 249C56 237.954 47.0457 229 36 229C24.9543 229 16 237.954 16 249C16 260.046 24.9543 269 36 269ZM99 249C99 260.046 90.0457 269 79 269C67.9543 269 59 260.046 59 249C59 237.954 67.9543 229 79 229C90.0457 229 99 237.954 99 249ZM122 269C133.046 269 142 260.046 142 249C142 237.954 133.046 229 122 229C110.954 229 102 237.954 102 249C102 260.046 110.954 269 122 269ZM185 249C185 260.046 176.046 269 165 269C153.954 269 145 260.046 145 249C145 237.954 153.954 229 165 229C176.046 229 185 237.954 185 249ZM208 269C219.046 269 228 260.046 228 249C228 237.954 219.046 229 208 229C196.954 229 188 237.954 188 249C188 260.046 196.954 269 208 269ZM271 249C271 260.046 262.046 269 251 269C239.954 269 231 260.046 231 249C231 237.954 239.954 229 251 229C262.046 229 271 237.954 271 249ZM294 269C305.046 269 314 260.046 314 249C314 237.954 305.046 229 294 229C282.954 229 274 237.954 274 249C274 260.046 282.954 269 294 269Z" fill="#2D2D2D"/>
</svg>
